<?xml version="1.0" encoding="UTF-8"?>
<svg version="1.1" xmlns="http://www.w3.org/2000/svg" width="480" height="480">
<path d="M0 0 C158.4 0 316.8 0 480 0 C480 158.4 480 316.8 480 480 C321.6 480 163.2 480 0 480 C0 321.6 0 163.2 0 0 Z " fill="#070707" transform="translate(0,0)"/>
<path d="M0 0 C2.05046433 1.61878763 3.35937831 3.01327455 5 5 C5.64582031 5.69351562 6.29164063 6.38703125 6.95703125 7.1015625 C16.42464737 17.28215146 24.44310595 28.35103289 32 40 C32.67289063 40.98484375 33.34578125 41.9696875 34.0390625 42.984375 C39.13164156 50.57694742 43.50446743 58.46643783 47.75 66.5625 C48.29293701 67.59076904 48.83587402 68.61903809 49.39526367 69.6784668 C53.14932091 76.94377007 56.17743697 84.33064177 59 92 C59.70799702 93.85008629 60.4187781 95.69911042 61.1328125 97.546875 C61.79706792 99.28117612 62.46113337 101.01555002 63.125 102.75 C63.45886719 103.61753906 63.79273438 104.48507813 64.13671875 105.37890625 C67.11266563 113.16304967 69.95878018 120.76017558 71.375 129 C72.2517185 133.9928479 73.18787025 138.96453237 74.23046875 143.92578125 C78.55483022 164.55064065 80.36958621 183.92505686 80 205 C80.7425 205.27199219 81.485 205.54398438 82.25 205.82421875 C102.39957397 214.43930648 116.09129508 237.83248907 124 257 C128.86593825 269.87368778 129.22792026 281.72450625 129.03710938 295.30615234 C129.01464905 296.93659441 128.9984879 298.56716294 128.99414062 300.19775391 C128.93724381 311.54013391 126.08966986 322.82066027 121 333 C120.34 333 119.68 333 119 333 C118.6596875 332.34515625 118.319375 331.6903125 117.96875 331.015625 C112.59256479 320.89238263 107.00257934 311.30235117 98.46875 303.5234375 C97 302 97 302 97 300 C96.13375 299.61714844 96.13375 299.61714844 95.25 299.2265625 C92.76916194 297.8741612 91.04600338 296.32025322 89 294.375 C83.75520865 289.59427199 77.97563892 285.80176013 72 282 C71.76925781 283.01578125 71.53851563 284.0315625 71.30078125 285.078125 C65.84613034 308.3761004 65.84613034 308.3761004 60 313 C57.67703438 313.38311005 57.67703438 313.38311005 54.88943481 313.39440918 C53.30381241 313.41143387 53.30381241 313.41143387 51.68615723 313.42880249 C50.52660522 313.42587189 49.36705322 313.42294128 48.17236328 313.41992188 C46.95100677 313.42839142 45.72965027 313.43686096 44.47128296 313.44558716 C41.1198129 313.46499945 37.7688992 313.47073265 34.41741037 313.46883965 C31.61922928 313.46872003 28.82110042 313.47728064 26.02293384 313.48561716 C19.42036455 313.50486065 12.81792169 313.50773198 6.21533203 313.50097656 C-0.59391068 313.49433777 -7.40261141 313.51719073 -14.21174419 313.55429029 C-20.05899995 313.58499199 -25.90608143 313.59634677 -31.75341618 313.59245348 C-35.24522982 313.59038606 -38.73662195 313.5958628 -42.22835922 313.62034607 C-46.12364663 313.64675573 -50.01822516 313.63288155 -53.91357422 313.61523438 C-55.06907776 313.62849762 -56.2245813 313.64176086 -57.4151001 313.65542603 C-65.21556703 313.57315244 -65.21556703 313.57315244 -69.16311646 310.68884277 C-71.41076069 307.39872567 -72.59424901 304.11696545 -73.625 300.3125 C-73.93183716 299.25772461 -73.93183716 299.25772461 -74.24487305 298.18164062 C-74.6523935 296.77744065 -75.05351747 295.37136616 -75.44775391 293.96337891 C-76.19768701 291.29717113 -77.00519789 288.64931539 -77.8125 286 C-78.20934067 284.66696613 -78.60564015 283.33376989 -79 282 C-88.3080858 282 -99.99013115 295.03267967 -106.44140625 301.2421875 C-110.19943449 305.04879551 -113.23165799 309.2219547 -116.25 313.625 C-116.765625 314.36234375 -117.28125 315.0996875 -117.8125 315.859375 C-121.66616567 321.40150243 -125.02908904 326.48083297 -127 333 C-127.66 333 -128.32 333 -129 333 C-138.78219106 308.76854199 -139.64060246 279.15680498 -130.71484375 254.44140625 C-129.28791706 251.19405497 -127.69751095 248.1140022 -126 245 C-125.34356207 243.70387856 -124.68869609 242.40696015 -124.03515625 241.109375 C-118.96763582 231.32152066 -112.78315477 223.75040657 -105 216 C-104.33871094 215.29101562 -103.67742187 214.58203125 -102.99609375 213.8515625 C-98.88056071 209.47821184 -94.2577695 205.92336268 -89 203 C-88.34 203 -87.68 203 -87 203 C-87.01571045 201.91452881 -87.01571045 201.91452881 -87.03173828 200.80712891 C-87.5750211 157.42015041 -78.28672491 116.38141904 -60 77 C-59.62456055 76.18950195 -59.24912109 75.37900391 -58.86230469 74.54394531 C-55.02875642 66.37066465 -50.70315776 58.58079144 -45.859375 50.96484375 C-44.55985345 48.89270749 -43.31917359 46.7830228 -42.125 44.6484375 C-39.7611018 40.47614574 -37.02946887 36.59101554 -34.25 32.6875 C-33.45057983 31.56166504 -33.45057983 31.56166504 -32.63500977 30.41308594 C-28.60986911 24.78020057 -24.44371776 19.31078464 -20 14 C-19.5467334 13.45263184 -19.0934668 12.90526367 -18.62646484 12.34130859 C-17.13086515 10.5359026 -15.62917644 8.73576457 -14.125 6.9375 C-13.40944946 6.07753418 -13.40944946 6.07753418 -12.67944336 5.20019531 C-8.56542889 0.32574957 -6.48622594 -0.6596162 0 0 Z " fill="#4CA5DA" transform="translate(242,22)"/>
<path d="M0 0 C11.79798055 10.69191987 19.6956631 26.05535682 27 40 C27.59296875 41.09828125 28.1859375 42.1965625 28.796875 43.328125 C40.39468263 65.2665014 48.9821614 89.2607138 52.6484375 113.79492188 C52.99083754 115.94253104 53.38718089 118.07051078 53.8125 120.203125 C53.94833496 120.88503906 54.08416992 121.56695312 54.22412109 122.26953125 C54.59515117 124.10253731 54.97305724 125.93414792 55.3515625 127.765625 C56.88871763 136.76217062 57.07614277 145.79472912 56.7890625 154.890625 C55.68886789 170.19689941 55.68886789 170.19689941 59.43457031 184.57666016 C63.29176659 188.62408873 67.76968464 190.29850619 73 192 C80.39833694 196.08041981 85.67398399 201.55081055 91 208 C91.51691406 208.60585938 92.03382813 209.21171875 92.56640625 209.8359375 C97.18764555 215.5551736 100.48796907 222.09924578 103 229 C102.67 229.66 102.34 230.32 102 231 C101.48091064 230.67725098 100.96182129 230.35450195 100.42700195 230.02197266 C98.05801289 228.55222171 95.68531238 227.0885697 93.3125 225.625 C92.49587891 225.11710938 91.67925781 224.60921875 90.83789062 224.0859375 C89.64389648 223.35117187 89.64389648 223.35117187 88.42578125 222.6015625 C87.69786377 222.15119629 86.96994629 221.70083008 86.2199707 221.23681641 C83.87585702 219.93083599 81.50892333 218.94494422 79 218 C79 217.34 79 216.68 79 216 C78.35289062 215.938125 77.70578125 215.87625 77.0390625 215.8125 C72.68134902 214.64745578 69.19791417 212.34854795 65.375 210 C63.86349254 209.08084006 62.35052895 208.16406923 60.8359375 207.25 C60.17126465 206.84265625 59.5065918 206.4353125 58.82177734 206.015625 C56.86944402 204.8532919 56.86944402 204.8532919 54 204 C53.89042969 204.8765625 53.78085937 205.753125 53.66796875 206.65625 C53.42008211 208.63934311 53.17205384 210.62241936 52.921875 212.60522461 C52.35350006 217.12156694 51.80394303 221.63966131 51.26953125 226.16015625 C51.14231689 227.21847656 51.01510254 228.27679688 50.8840332 229.3671875 C50.63198761 231.46430934 50.384284 233.56195853 50.14135742 235.66015625 C50.02252197 236.63984375 49.90368652 237.61953125 49.78125 238.62890625 C49.6275293 239.9293689 49.6275293 239.9293689 49.47070312 241.25610352 C48.904172 244.55861561 47.92052256 247.77817104 47 251 C16.31 251 -14.38 251 -46 251 C-49.08573455 240.50850252 -52.01470637 230.27124175 -54.3125 219.625 C-54.57611328 218.4390625 -54.83972656 217.253125 -55.11132812 216.03125 C-57 207.41694399 -57 207.41694399 -57 204 C-58.08796875 204.65226563 -59.1759375 205.30453125 -60.296875 205.9765625 C-67.82028202 210.45985335 -75.322669 214.74820401 -83.21484375 218.55859375 C-87.16378927 220.60229767 -90.83555579 223.01204641 -94.52734375 225.484375 C-96.95755673 226.97398422 -99.32721717 228.02460161 -102 229 C-97.24571713 212.91050587 -86.58872358 199.55327101 -73 190 C-71.83500977 189.42878418 -70.67001953 188.85756836 -69.46972656 188.26904297 C-62.65928802 184.98419032 -62.65928802 184.98419032 -58.20709229 179.16125488 C-57.17789368 174.69413528 -57.21371476 170.18619924 -57.31869507 165.62322998 C-57.3953342 162.22277853 -57.31869182 158.83081852 -57.24986267 155.43069458 C-57.21614268 153.71864584 -57.18980726 152.00643548 -57.1709137 150.29415894 C-56.94133381 132.62667533 -53.27264446 115.15968254 -48.59375 98.17675781 C-48.02724227 96.09987338 -47.49206129 94.0178222 -46.96875 91.9296875 C-44.10600377 80.68648255 -40.68783869 69.78365516 -35.2487793 59.50317383 C-34.08930011 57.17900176 -33.15239261 54.87694586 -32.24609375 52.4453125 C-29.85346124 46.39654124 -26.81087948 40.78804704 -23.625 35.125 C-22.71766113 33.50646118 -22.71766113 33.50646118 -21.79199219 31.85522461 C-8.43405437 8.43405437 -8.43405437 8.43405437 0 0 Z " fill="#070707" transform="translate(238,58)"/>
<path d="M0 0 C8.23617626 6.62475047 13.0093071 13.90502465 14.25390625 24.5546875 C14.62014065 34.59659842 11.93058207 42.66344064 5.6328125 50.49609375 C-1.59427777 57.96408703 -10.38464828 61.38087104 -20.625 61.75 C-30.01844603 61.49848748 -37.26202227 57.61080235 -44.125 51.3125 C-51.71771353 42.87806031 -53.98064861 34.6964384 -53.59765625 23.6171875 C-52.86282866 14.32847552 -47.79715066 7.03132437 -41.0703125 0.8671875 C-29.79063794 -8.14749217 -12.08058398 -6.52351535 0 0 Z " fill="#4DA6DB" transform="translate(258.125,156.6875)"/>
<path d="M0 0 C4.3052723 2.00320362 7.20501809 4.17802894 9.76953125 8.28125 C11.04264882 11.97440841 10.91033682 15.63182084 10.93066406 19.5090332 C10.93811142 20.59031998 10.93811142 20.59031998 10.94570923 21.69345093 C10.96028734 24.0729875 10.96712571 26.4524574 10.97265625 28.83203125 C10.97841146 30.49106344 10.98416915 32.15009563 10.9899292 33.80912781 C11.00042693 37.28673613 11.00627757 40.76432143 11.00976562 44.24194336 C11.01524654 48.68717054 11.03927103 53.13209083 11.06773758 57.57722187 C11.08640762 61.00456111 11.09157189 64.43182709 11.0931015 67.85921288 C11.09611891 69.49739445 11.10411653 71.13557502 11.11728668 72.77370644 C11.13443842 75.07113283 11.13244506 77.36781788 11.12597656 79.6652832 C11.13144501 81.62241997 11.13144501 81.62241997 11.13702393 83.61909485 C10.46059933 90.35983276 7.91485189 94.77909444 2.76953125 99.28125 C-1.70252727 102.26262235 -5.98823089 101.75992268 -11.23046875 101.28125 C-16.01801019 99.47262324 -19.28515755 95.38231623 -22.23046875 91.28125 C-23.39815557 87.77818955 -23.39346363 84.61290841 -23.4074707 80.9675293 C-23.4140419 80.22570404 -23.4206131 79.48387878 -23.42738342 78.71957397 C-23.44709215 76.26487118 -23.45877335 73.81022948 -23.46875 71.35546875 C-23.47282553 70.51620157 -23.47690105 69.67693439 -23.48110008 68.81223488 C-23.50195012 64.37034985 -23.51625664 59.92849563 -23.52563477 55.48657227 C-23.53669922 50.90324974 -23.57110232 46.3204127 -23.61080647 41.73726177 C-23.6369735 38.20873625 -23.64532664 34.68032643 -23.64891624 31.15171242 C-23.65378171 29.46244845 -23.66539461 27.77318963 -23.68395424 26.08402061 C-23.70834926 23.71667552 -23.70738062 21.35058708 -23.70043945 18.9831543 C-23.71324951 18.28943222 -23.72605957 17.59571014 -23.73925781 16.88096619 C-23.6782485 11.15414282 -21.56848776 7.63604905 -17.59765625 3.63671875 C-11.89183565 -0.82935549 -7.14404261 -2.3021083 0 0 Z " fill="#5C5ECB" transform="translate(243.23046875,356.71875)"/>
<path d="M0 0 C2.98716223 1.29593805 5.48638032 2.93918017 8 5 C8.54785156 5.42667969 9.09570312 5.85335938 9.66015625 6.29296875 C12.50113672 9.91252696 12.12886626 15.1627598 12.16113281 19.60302734 C12.17074036 20.67789398 12.1803479 21.75276062 12.19024658 22.86019897 C12.19449646 24.00719269 12.19874634 25.1541864 12.203125 26.3359375 C12.20882507 27.5292569 12.21452515 28.72257629 12.22039795 29.95205688 C12.22982667 32.47193521 12.23637346 34.99182574 12.24023438 37.51171875 C12.24994789 41.35438616 12.28099568 45.19652028 12.3125 49.0390625 C12.31902996 51.49218434 12.32428046 53.94530998 12.328125 56.3984375 C12.3404718 57.54138275 12.3528186 58.684328 12.36553955 59.86190796 C12.34768559 66.29394739 11.82443772 71.18294291 9 77 C4.85911791 81.03470563 0.93369768 83.28452184 -4.875 83.375 C-10.45725256 83.24384575 -13.5082397 81.53238682 -17.4375 77.5390625 C-21.60150399 72.87821712 -22.11637458 69.47880935 -22.17700195 63.40869141 C-22.18983719 62.28717682 -22.20267242 61.16566223 -22.21589661 60.01016235 C-22.22328354 58.8028244 -22.23067047 57.59548645 -22.23828125 56.3515625 C-22.246353 55.10627777 -22.25442474 53.86099304 -22.26274109 52.57797241 C-22.27656915 49.94354543 -22.28758978 47.30924304 -22.29516602 44.67480469 C-22.3040348 41.9782864 -22.32493318 39.28228197 -22.35668945 36.5859375 C-22.39928059 32.6951541 -22.41552304 28.80504982 -22.42578125 24.9140625 C-22.44328934 23.71077301 -22.46079742 22.50748352 -22.47883606 21.26773071 C-22.45899505 13.6189356 -21.80272132 9.83001358 -16.3671875 4.35546875 C-10.78181278 -0.01632979 -7.06844827 -0.93902014 0 0 Z " fill="#5C5ECB" transform="translate(196,356)"/>
<path d="M0 0 C4.96373505 2.40633242 7.90021993 6.34595483 9.984375 11.37109375 C10.6977505 15.84582774 10.68584156 20.25327671 10.6484375 24.77734375 C10.65322113 26.05661743 10.65800476 27.33589111 10.66293335 28.65393066 C10.67026779 31.35048928 10.65971308 34.04621475 10.63623047 36.74267578 C10.60774178 40.17932718 10.62416472 43.61402583 10.65409279 47.05060577 C10.67662407 50.35550346 10.66079582 53.65989079 10.6484375 56.96484375 C10.65855865 58.18901001 10.66867981 59.41317627 10.67910767 60.67443848 C10.58314396 67.7057266 9.95788622 73.09911903 4.984375 78.37109375 C0.33784593 81.77654798 -4.1516754 83.04524098 -9.91015625 82.7578125 C-14.48196881 81.91809183 -17.21161875 79.24210052 -20.265625 75.93359375 C-23.22363996 71.6022147 -24.26461258 68.01850953 -24.30615234 62.78979492 C-24.31891205 61.694832 -24.33167175 60.59986908 -24.34481812 59.47172546 C-24.34704376 58.29769669 -24.34926941 57.12366791 -24.3515625 55.9140625 C-24.3582193 54.69713211 -24.3648761 53.48020172 -24.37173462 52.22639465 C-24.38185253 49.65346791 -24.38655191 47.08051497 -24.38623047 44.50756836 C-24.39059742 40.58337836 -24.42691176 36.66031877 -24.46484375 32.73632812 C-24.47071337 30.23307675 -24.47468179 27.72982005 -24.4765625 25.2265625 C-24.49093353 24.05860641 -24.50530457 22.89065033 -24.52011108 21.68730164 C-24.47769767 14.07471795 -23.699662 8.23209322 -18.2265625 2.49609375 C-12.32485219 -1.12027342 -6.70663756 -2.0925749 0 0 Z " fill="#5C5ECB" transform="translate(292.015625,356.62890625)"/>
<path d="M0 0 C0.66 0 1.32 0 2 0 C0.44499019 3.81684226 -2.03595495 6.19195732 -5 9 C-5.66 8.67 -6.32 8.34 -7 8 C-5.88200014 6.66079162 -4.75538103 5.32877444 -3.625 4 C-2.68527344 2.88625 -2.68527344 2.88625 -1.7265625 1.75 C-1.15679687 1.1725 -0.58703125 0.595 0 0 Z " fill="#418DBB" transform="translate(233,23)"/>
</svg>
